<svg width="28" height="28" viewBox="0 0 28 28" fill="none" xmlns="http://www.w3.org/2000/svg">
<circle cx="14" cy="14" r="14" fill="white"/>
<path d="M11.5 9.5C11.8978 9.5 12.2794 9.65804 12.5607 9.93934C12.842 10.2206 13 10.6022 13 11V17C13 17.3978 12.842 17.7794 12.5607 18.0607C12.2794 18.342 11.8978 18.5 11.5 18.5C11.1022 18.5 10.7206 18.342 10.4393 18.0607C10.158 17.7794 10 17.3978 10 17V11C10 10.6022 10.158 10.2206 10.4393 9.93934C10.7206 9.65804 11.1022 9.5 11.5 9.5V9.5ZM16.5 9.5C16.8978 9.5 17.2794 9.65804 17.5607 9.93934C17.842 10.2206 18 10.6022 18 11V17C18 17.3978 17.842 17.7794 17.5607 18.0607C17.2794 18.342 16.8978 18.5 16.5 18.5C16.1022 18.5 15.7206 18.342 15.4393 18.0607C15.158 17.7794 15 17.3978 15 17V11C15 10.6022 15.158 10.2206 15.4393 9.93934C15.7206 9.65804 16.1022 9.5 16.5 9.5Z" fill="black"/>
</svg>
