<svg width="23" height="22" viewBox="0 0 23 22" fill="none" xmlns="http://www.w3.org/2000/svg">
<g filter="url(#filter0_dd_475_1030)">
<path d="M7.95205 6.62727L8.62329 5.86364C7.56849 4.62273 6.03425 3.95455 4.5 3.95455V4.90909C5.74658 4.90909 6.99315 5.48182 7.85616 6.43636L7.95205 6.62727ZM15.1438 11.1136C13.9932 11.1136 12.9384 10.6364 12.0753 9.87273L11.5 10.6364C12.4589 11.5909 13.8014 12.0682 15.1438 12.0682V13.5L18.5 11.5909L15.1438 9.68182V11.1136ZM15.1438 5.38636V6.81818L18.5 4.90909L15.1438 3V4.43182C13.6096 4.43182 12.0753 5.1 11.1164 6.34091L7.85616 10.0636C6.99315 11.0182 5.74658 11.5909 4.5 11.5909V12.5455C6.03425 12.5455 7.56849 11.8773 8.5274 10.6364L11.7877 6.91364C12.6507 5.95909 13.8973 5.38636 15.1438 5.38636Z" fill="#1DB954"/>
</g>
<defs>
<filter id="filter0_dd_475_1030" x="-0.5" y="0" width="24" height="24" filterUnits="userSpaceOnUse" color-interpolation-filters="sRGB">
<feFlood flood-opacity="0" result="BackgroundImageFix"/>
<feColorMatrix in="SourceAlpha" type="matrix" values="0 0 0 0 0 0 0 0 0 0 0 0 0 0 0 0 0 0 127 0" result="hardAlpha"/>
<feOffset dy="4"/>
<feGaussianBlur stdDeviation="2"/>
<feComposite in2="hardAlpha" operator="out"/>
<feColorMatrix type="matrix" values="0 0 0 0 0 0 0 0 0 0 0 0 0 0 0 0 0 0 0.25 0"/>
<feBlend mode="normal" in2="BackgroundImageFix" result="effect1_dropShadow_475_1030"/>
<feColorMatrix in="SourceAlpha" type="matrix" values="0 0 0 0 0 0 0 0 0 0 0 0 0 0 0 0 0 0 127 0" result="hardAlpha"/>
<feOffset dy="4"/>
<feGaussianBlur stdDeviation="2"/>
<feComposite in2="hardAlpha" operator="out"/>
<feColorMatrix type="matrix" values="0 0 0 0 0 0 0 0 0 0 0 0 0 0 0 0 0 0 0.25 0"/>
<feBlend mode="normal" in2="effect1_dropShadow_475_1030" result="effect2_dropShadow_475_1030"/>
<feBlend mode="normal" in="SourceGraphic" in2="effect2_dropShadow_475_1030" result="shape"/>
</filter>
</defs>
</svg>
